<svg width="80" height="80" viewBox="0 0 80 80" fill="none" xmlns="http://www.w3.org/2000/svg">
<rect x="25" y="25" width="30" height="30" fill="white"/>
<rect width="4" height="19" transform="matrix(-1 0 0 1 42 0)" fill="white"/>
<rect width="4" height="19" transform="matrix(-1 0 0 1 42 61)" fill="white"/>
<rect width="4" height="19" transform="matrix(0 -1 -1 0 80 42)" fill="white"/>
<rect width="4" height="14" transform="matrix(0.707107 -0.707107 -0.707107 -0.707107 18.8994 22.728)" fill="white"/>
<rect width="4" height="14" transform="matrix(0.719888 0.69409 -0.719888 0.69409 19.0786 59.0491)" fill="white"/>
<rect width="4" height="14" transform="matrix(0.707107 0.707107 0.707107 -0.707107 58 19.8994)" fill="white"/>
<rect width="4" height="14" transform="matrix(0.719888 -0.69409 0.719888 0.69409 58.1792 61.7764)" fill="white"/>
<rect width="4" height="19" transform="matrix(0 -1 -1 0 19 42)" fill="white"/>
</svg>
